<?xml version="1.0" standalone="no"?>
<!DOCTYPE svg PUBLIC "-//W3C//DTD SVG 20010904//EN"
 "http://www.w3.org/TR/2001/REC-SVG-20010904/DTD/svg10.dtd">
<svg version="1.0" xmlns="http://www.w3.org/2000/svg"
 width="1212.000000pt" height="201.000000pt" viewBox="0 0 1212.000000 201.000000"
 preserveAspectRatio="xMidYMid meet">

<g transform="translate(0.000000,201.000000) scale(0.100000,-0.100000)"
fill="#000000" stroke="none">
<path d="M210 1852 c-19 -9 -45 -32 -57 -51 -23 -34 -23 -38 -23 -352 0 -371
-7 -349 111 -349 64 0 67 -1 78 -29 21 -48 85 -102 139 -116 101 -27 198 18
246 113 16 31 18 32 86 32 102 0 110 11 110 141 0 55 -5 109 -10 119 -6 11
-26 22 -48 26 -50 9 -77 27 -92 64 -18 43 -3 89 39 117 19 13 44 23 56 23 44
0 55 28 55 136 0 156 29 144 -343 144 -277 0 -316 -2 -347 -18z m580 -125 c0
-28 -6 -35 -46 -56 -155 -83 -147 -308 14 -376 27 -12 32 -19 32 -49 l0 -36
-74 0 c-82 0 -94 -7 -103 -64 -8 -49 -52 -86 -101 -86 -54 1 -102 47 -102 99
0 37 -27 51 -101 51 l-69 0 0 263 c0 191 3 266 12 275 9 9 84 12 275 12 l263
0 0 -33z"/>
<path d="M1096 1848 c-11 -15 -16 -45 -16 -90 0 -65 -1 -69 -27 -79 -38 -14
-92 -67 -109 -108 -8 -18 -14 -58 -14 -88 0 -82 39 -147 113 -184 l37 -19 0
-70 c0 -102 11 -110 141 -110 55 0 109 5 119 10 11 6 22 26 26 48 14 75 65
113 127 96 35 -11 77 -64 77 -99 0 -44 28 -55 137 -55 156 0 144 -30 141 357
-4 445 29 413 -425 413 -311 0 -312 0 -327 -22z m632 -100 c9 -9 12 -84 12
-275 l0 -263 -32 0 c-29 0 -36 6 -60 50 -46 83 -144 125 -236 100 -51 -13
-118 -70 -137 -117 -12 -29 -19 -33 -49 -33 l-36 0 0 74 c0 82 -4 88 -67 105
-51 14 -83 51 -83 98 0 51 25 81 83 98 28 8 54 21 59 28 4 6 8 42 8 80 l0 67
263 0 c191 0 266 -3 275 -12z"/>
<path d="M4043 1665 c-165 -36 -310 -165 -372 -330 -48 -128 -48 -313 -1 -452
26 -74 98 -181 155 -227 85 -70 213 -116 325 -116 63 0 170 25 221 51 54 27
163 114 185 146 15 24 13 26 -42 91 -32 37 -61 71 -66 76 -4 5 -31 -13 -61
-41 -74 -70 -127 -95 -213 -101 -164 -11 -287 82 -330 248 -35 138 4 280 102
370 69 62 132 84 223 78 86 -6 148 -35 217 -99 l55 -53 68 74 68 75 -29 35
c-61 77 -182 149 -290 175 -76 18 -133 18 -215 0z"/>
<path d="M4910 1665 c-155 -49 -230 -237 -156 -390 22 -46 61 -91 164 -194 74
-74 145 -150 158 -169 33 -48 31 -87 -5 -123 -59 -58 -143 -29 -207 73 l-24
38 -75 -50 c-40 -27 -76 -54 -80 -59 -8 -14 37 -99 79 -148 20 -23 62 -54 94
-70 48 -23 70 -28 137 -28 127 0 209 49 268 159 19 35 22 57 22 146 0 98 -2
109 -30 159 -19 35 -84 108 -182 205 -134 132 -153 155 -153 183 0 85 117 81
181 -6 13 -17 28 -31 34 -31 6 0 41 31 79 69 l68 68 -58 62 c-96 104 -206 141
-314 106z"/>
<path d="M5465 1668 c-3 -7 -4 -258 -3 -558 l3 -545 91 -3 91 -3 5 248 c5 204
8 256 23 290 46 112 163 140 212 50 16 -28 19 -70 23 -307 l5 -275 93 -3 92
-3 0 315 c0 291 -2 319 -20 369 -57 151 -244 202 -379 102 -19 -14 -39 -25
-43 -25 -4 0 -8 81 -8 180 l0 180 -90 0 c-63 0 -92 -4 -95 -12z"/>
<path d="M2285 1649 c-3 -8 -4 -255 -3 -549 l3 -535 95 0 95 0 3 226 2 227 86
7 c113 9 192 48 240 118 45 66 57 115 52 222 -7 140 -60 225 -167 266 -47 18
-85 22 -228 27 -141 4 -174 2 -178 -9z m361 -242 c35 -41 33 -100 -5 -138 -27
-26 -36 -29 -95 -29 l-66 0 0 101 0 101 71 -4 c63 -3 74 -7 95 -31z"/>
<path d="M3065 1648 c-3 -7 -4 -254 -3 -548 l3 -535 228 -3 227 -2 0 110 0
110 -130 0 -130 0 -2 438 -3 437 -93 3 c-68 2 -94 -1 -97 -10z"/>
<path d="M6512 1382 c-96 -35 -174 -118 -214 -229 -25 -71 -35 -217 -19 -293
34 -165 156 -295 297 -316 59 -9 146 12 193 47 23 16 43 29 45 29 3 0 6 -12 8
-27 l3 -28 95 0 95 0 0 405 0 405 -95 0 -95 0 -5 -34 c-5 -31 -6 -33 -19 -17
-27 33 -110 67 -174 72 -45 3 -76 0 -115 -14z m202 -196 c18 -7 46 -30 63 -51
95 -115 55 -337 -70 -384 -141 -54 -270 97 -238 276 25 134 134 205 245 159z"/>
<path d="M7425 1386 c-16 -7 -41 -26 -55 -41 l-25 -27 -5 29 c-5 28 -5 28 -85
28 l-80 0 0 -405 0 -405 92 -3 91 -3 5 268 c4 277 10 321 48 362 16 17 30 21
61 19 l39 -3 29 87 28 88 -37 10 c-47 13 -69 12 -106 -4z"/>
<path d="M7927 1390 c-170 -43 -287 -213 -287 -420 0 -281 198 -465 452 -422
39 7 93 25 121 39 55 30 129 109 125 132 -2 8 -36 32 -76 54 l-73 39 -27 -25
c-109 -104 -293 -56 -327 86 l-7 27 287 0 288 0 -7 78 c-16 197 -92 325 -230
388 -60 27 -178 39 -239 24z m160 -191 c35 -13 80 -55 99 -91 l15 -28 -182 0
-181 0 25 43 c43 73 143 107 224 76z"/>
<path d="M9247 1389 c-95 -22 -181 -84 -238 -171 -53 -82 -72 -164 -67 -281 3
-84 8 -103 40 -168 46 -93 105 -153 188 -193 60 -29 73 -31 170 -30 85 0 116
4 162 23 58 23 168 111 168 136 0 6 -28 32 -62 56 -89 64 -85 62 -110 39 -36
-34 -76 -51 -133 -57 -135 -14 -228 76 -229 223 -1 88 30 155 90 197 77 54
205 45 264 -18 13 -14 27 -25 31 -25 13 0 159 91 159 99 0 17 -73 91 -117 119
-84 54 -214 75 -316 51z"/>
<path d="M10110 1387 c-63 -18 -108 -47 -167 -110 -83 -88 -113 -170 -114
-310 -1 -338 317 -538 576 -362 166 114 226 366 134 566 -77 167 -266 262
-429 216z m167 -204 c19 -9 48 -34 64 -55 82 -115 50 -311 -61 -368 -145 -74
-287 74 -252 264 26 139 140 211 249 159z"/>
<path d="M11052 1382 c-29 -11 -66 -32 -82 -47 l-29 -27 -3 33 -3 34 -97 3
-98 3 0 -411 0 -411 98 3 97 3 5 260 c4 217 8 265 22 290 55 101 156 112 205
22 16 -28 19 -69 23 -302 l5 -270 95 0 95 0 5 255 c5 233 7 258 26 295 36 69
111 103 165 75 10 -6 27 -25 36 -43 16 -28 19 -70 23 -307 l5 -275 98 -3 97
-3 0 289 c0 159 -5 314 -10 343 -14 75 -56 137 -114 174 -44 26 -58 30 -125
30 -66 0 -83 -4 -130 -30 -29 -16 -66 -44 -81 -63 l-27 -33 -23 35 c-49 81
-173 115 -278 78z"/>
<path d="M1430 1070 c-69 -12 -121 -52 -154 -117 -16 -32 -18 -33 -86 -33
-102 0 -110 -11 -110 -141 0 -55 5 -109 10 -120 7 -11 26 -21 50 -25 73 -12
115 -74 89 -135 -14 -35 -62 -69 -96 -69 -40 0 -53 -35 -53 -141 0 -152 -29
-140 357 -137 445 4 413 -29 413 425 0 365 7 343 -112 343 -65 0 -69 1 -79 28
-13 34 -66 91 -99 104 -41 17 -93 24 -130 18z m95 -126 c16 -10 31 -35 40 -67
8 -28 21 -54 28 -59 6 -4 42 -8 80 -8 l67 0 0 -263 c0 -191 -3 -266 -12 -275
-9 -9 -84 -12 -275 -12 l-263 0 0 33 c0 28 6 35 50 59 83 46 125 144 100 236
-13 51 -70 118 -117 137 -29 12 -33 19 -33 49 l0 36 74 0 c81 0 92 6 102 61
10 52 50 89 96 89 21 0 50 -7 63 -16z"/>
<path d="M151 903 c-22 -18 -22 -21 -19 -340 4 -445 -29 -413 425 -413 365 0
343 -7 343 112 0 65 1 69 28 79 68 26 122 109 122 189 0 87 -39 153 -112 191
l-38 19 0 70 c0 102 -11 110 -141 110 -55 0 -109 -4 -119 -10 -11 -6 -21 -26
-25 -49 -12 -74 -76 -116 -136 -90 -35 14 -69 62 -69 96 0 40 -35 53 -141 53
-77 0 -101 -4 -118 -17z m178 -138 c65 -123 221 -149 325 -56 21 20 45 51 53
69 11 27 18 32 48 32 l35 0 0 -74 c0 -82 4 -88 67 -105 51 -14 83 -51 83 -98
0 -51 -25 -81 -83 -98 -28 -8 -54 -21 -59 -28 -4 -6 -8 -42 -8 -79 l0 -68
-263 0 c-191 0 -266 3 -275 12 -9 9 -12 84 -12 275 l0 263 33 0 c28 0 35 -6
56 -45z"/>
<path d="M8624 780 c-68 -27 -88 -142 -36 -200 39 -45 97 -51 139 -16 65 54
65 147 2 200 -31 26 -67 32 -105 16z"/>
</g>
</svg>
